<?xml version="1.0" encoding="utf-8"?>
<svg xmlns="http://www.w3.org/2000/svg" xmlns:xlink="http://www.w3.org/1999/xlink">
    <!-- Antenna icon -->
    <symbol id="icon-antenna" viewBox="0 0 64 64">
        <g>
            <path d="M61.546 44.195L44.66 27.309l1.874-9.699c.208.094.426.147.652.156h.028a2.169 2.169 0 1 0-2.134-1.762l-9.699 1.874L18.495 1.992a1.216 1.216 0 0 0-1.715 0l-2.867 2.867a1.216 1.216 0 0 0 0 1.715l.963.963-16.89 16.89a4.864 4.864 0 0 0 0 6.88l2.075 2.075c.011.011.022.021.033.031L0 33.507v24.976C0 60.973 2.027 63 4.517 63h24.976v-2.086c.01.011.021.022.031.033l2.075 2.075c.95.95 2.2 1.423 3.44 1.423s2.49-.474 3.44-1.423l16.89-16.89.963.963c.237.237.548.355.858.355s.621-.118.858-.355l2.867-2.867c.474-.474.474-1.241 0-1.715l-.369-.368zM44.133 18.459a.734.734 0 1 1 0-1.468.734.734 0 0 1 0 1.468zm-3.107 3.741l-1.379 7.134-1.476-1.476 2.855-5.658zm-2.222 9.883l-2.409-2.409 5.658-2.855-3.249 5.264zm5.378 23.661c-.355.355-.82.533-1.285.533s-.93-.178-1.285-.533l-2.075-2.075a1.205 1.205 0 0 0-.358-.243l.002-.003-23.868-23.868a1.216 1.216 0 0 0-1.715 0l-.906.906a4.864 4.864 0 0 0-5.565-.938l16.372-16.372.963.963c.237.237.548.355.858.355s.621-.118.858-.355l.906-.906 23.868 23.868c.474.474.474 1.241 0 1.715l-5.77 5.77zm7.858-4.316l-.963-.963 16.89-16.89a2.433 2.433 0 0 0 0-3.44 2.433 2.433 0 0 0-3.44 0l-16.89 16.89-.963-.963c-.474-.474-1.241-.474-1.715 0l-5.77 5.77L15.819 28.46l5.77-5.77c.474-.474.474-1.241 0-1.715l-.963-.963 16.89-16.89a2.433 2.433 0 0 0 0-3.44 2.433 2.433 0 0 0-3.44 0l-16.89 16.89-.963-.963-1.153 1.153L36.792 39.48c.474.474 1.241.474 1.715 0l5.77-5.77 22.392 22.392 1.153-1.153z"/>
            <path d="M4.517 60.532c-1.142 0-2.073-.931-2.073-2.073v-23.61l23.537 23.537H4.517v.146zM27.25 60.532h-.146l-2.073-2.073h4.146v2.073z"/>
        </g>
    </symbol>

    <!-- Clock icon -->
    <symbol id="icon-clock" viewBox="0 0 64 64">
        <g>
            <path d="M31.999 32c0 .335.271.607.607.607h9.697a.607.607 0 1 0 0-1.214h-9.697a.607.607 0 0 0-.607.607z"/>
            <path d="M31.999 32a.607.607 0 0 0 .607-.607V21.696a.607.607 0 1 0-1.214 0v9.697c0 .335.271.607.607.607z"/>
            <path d="M54.112 9.878a32.089 32.089 0 0 0-13.446-8.264.607.607 0 0 0-.427 1.135 30.873 30.873 0 0 1 12.92 7.944c7.655 7.655 11.872 17.83 11.872 28.655S60.813 60.348 53.158 68.003c-7.655 7.655-17.83 11.872-28.655 11.872S3.503 75.658-4.152 68.003c-7.655-7.655-11.872-17.83-11.872-28.655S-11.807 21.873-4.152 14.218a30.873 30.873 0 0 1 12.92-7.944.607.607 0 0 0-.427-1.135A32.089 32.089 0 0 0-5.105 13.403C-13.146 21.444-17.571 32.124-17.571 43.348s4.425 21.904 12.466 29.945c8.041 8.041 18.721 12.466 29.945 12.466s21.904-4.425 29.945-12.466c8.041-8.041 12.466-18.721 12.466-29.945s-4.425-21.904-12.466-29.945z"/>
        </g>
    </symbol>

    <!-- Diagram icon -->
    <symbol id="icon-diagram" viewBox="0 0 64 64">
        <g>
            <path d="M29.851 29.849h2.731v8.195h-2.731v-8.195z"/>
            <path d="M39.41 34.045h2.731v4h-2.731v-4z"/>
            <path d="M20.291 37.582h2.731v.463h-2.731v-.463z"/>
            <path d="M14.512 36.582h2.731v1.463h-2.731v-1.463z"/>
            <path d="M3.484 0v64h57.339v-64H3.484zm54.608 61.269H6.215V2.731h51.877v58.538z"/>
        </g>
    </symbol>

    <!-- Astronaut icon -->
    <symbol id="icon-astronaut" viewBox="0 0 64 64">
        <g>
            <path d="M63.948 9.048a1.366 1.366 0 0 0-1.133-.567H46.302V1.366C46.302.612 45.69 0 44.936 0H19.064c-.754 0-1.366.612-1.366 1.366v7.115H1.185c-.457 0-.884.223-1.133.567-.267.344-.339.79-.193 1.197l4.833 13.627V50.59c0 .754.612 1.366 1.366 1.366h52.101c.754 0 1.366-.612 1.366-1.366V23.871l4.833-13.627c.146-.407.074-.853-.193-1.197zM20.43 2.731h23.139v6.383H20.43V2.731zm35.93 46.226H7.64V24.509h48.721v24.448zm-46.683-27.18l-3.992-11.245h14.016v2.731a1.366 1.366 0 0 0 2.731 0v-2.731h23.139v2.731a1.366 1.366 0 0 0 2.731 0v-2.731h14.016l-3.992 11.245H9.677z"/>
            <path d="M38.553 31.624H25.447c-.754 0-1.366.612-1.366 1.366v11.661c0 .754.612 1.366 1.366 1.366h13.106c.754 0 1.366-.612 1.366-1.366V32.99c0-.754-.612-1.366-1.366-1.366zm-1.366 11.661H26.813v-8.929h10.374v8.929zM31.093 14.174c.754 0 1.366-.612 1.366-1.366V7.731a1.366 1.366 0 0 0-2.731 0v5.077c0 .754.612 1.366 1.366 1.366z"/>
        </g>
    </symbol>

    <!-- Facebook icon -->
    <symbol id="icon-facebook" viewBox="0 0 32 32">
        <g>
            <path d="M21.329 5.313h2.921V.225C23.746.156 22.013 0 19.994 0c-4.212 0-7.097 2.649-7.097 7.519V12H8.249v5.688h4.648V32h5.699V17.689h4.46l.708-5.688h-5.169V8.082c.001-1.644.444-2.769 2.735-2.769z"/>
        </g>
    </symbol>

    <!-- Instagram icon -->
    <symbol id="icon-instagram" viewBox="0 0 32 32">
        <g>
            <path d="M31.969 9.408c-.075-1.7-.35-2.869-.744-3.882a7.803 7.803 0 0 0-1.85-2.838A7.867 7.867 0 0 0 26.543.844C25.524.45 24.361.175 22.661.1 20.948.019 20.404 0 16.06 0s-4.888.019-6.595.094c-1.7.075-2.869.35-3.882.744a7.803 7.803 0 0 0-2.838 1.85A7.867 7.867 0 0 0 .901 5.52C.507 6.539.232 7.702.157 9.402c-.081 1.713-.1 2.257-.1 6.601s.019 4.888.094 6.595c.075 1.7.35 2.869.744 3.882a7.895 7.895 0 0 0 1.85 2.838 7.867 7.867 0 0 0 2.832 1.844c1.019.394 2.182.669 3.882.744 1.706.075 2.25.094 6.595.094s4.888-.019 6.595-.094c1.7-.075 2.869-.35 3.882-.744a8.181 8.181 0 0 0 4.682-4.682c.394-1.019.669-2.182.744-3.882.075-1.707.094-2.25.094-6.595s-.006-4.888-.081-6.595zm-2.882 13.065c-.069 1.563-.331 2.407-.55 2.969a5.31 5.31 0 0 1-3.038 3.038c-.563.219-1.413.481-2.969.55-1.688.075-2.194.094-6.464.094s-4.782-.019-6.464-.094c-1.563-.069-2.407-.331-2.969-.55a4.926 4.926 0 0 1-1.838-1.194 4.974 4.974 0 0 1-1.194-1.838c-.219-.563-.481-1.413-.55-2.969-.075-1.688-.094-2.194-.094-6.464s.019-4.782.094-6.464c.069-1.563.331-2.407.55-2.969a4.868 4.868 0 0 1 1.2-1.838A4.974 4.974 0 0 1 6.639 3.55c.563-.219 1.413-.481 2.969-.55 1.688-.075 2.194-.094 6.464-.094 4.276 0 4.782.019 6.464.094 1.563.069 2.407.331 2.969.55a4.914 4.914 0 0 1 1.838 1.194 4.974 4.974 0 0 1 1.194 1.838c.219.563.481 1.413.55 2.969.075 1.688.094 2.194.094 6.464s-.019 4.77-.094 6.458z"/>
            <path d="M16.059 7.783c-4.538 0-8.22 3.682-8.22 8.22s3.682 8.22 8.22 8.22 8.22-3.682 8.22-8.22-3.682-8.22-8.22-8.22zm0 13.552a5.333 5.333 0 0 1 0-10.664 5.333 5.333 0 0 1 0 10.664zM26.524 7.458a1.919 1.919 0 1 1-3.838 0 1.919 1.919 0 0 1 3.838 0z"/>
        </g>
    </symbol>

    <!-- LinkedIn icon -->
    <symbol id="icon-linkedin" viewBox="0 0 32 32">
        <g>
            <path d="M31.992 32v-.001H32V20.263c0-5.741-1.236-10.164-7.948-10.164-3.227 0-5.392 1.771-6.276 3.449h-.093v-2.913h-6.364v21.364h6.627V21.42c0-2.785.528-5.479 3.977-5.479 3.399 0 3.449 3.179 3.449 5.657v10.401h6.62zM.528 10.636h6.635V32H.528V10.636zM3.843 0C1.722 0 0 1.721 0 3.843s1.721 3.879 3.843 3.879c2.121 0 3.843-1.757 3.843-3.879A3.846 3.846 0 0 0 3.843 0z"/>
        </g>
    </symbol>

    <!-- Twitter icon -->
    <symbol id="icon-twitter" viewBox="0 0 32 32">
        <g>
            <path d="M32 6.078c-1.19.522-2.458.868-3.78 1.036a6.523 6.523 0 0 0 2.886-3.626 13.11 13.11 0 0 1-4.16 1.588A6.574 6.574 0 0 0 22.154 3c-3.632 0-6.556 2.948-6.556 6.562 0 .52.044 1.02.152 1.496-5.454-.266-10.28-2.88-13.522-6.862a6.605 6.605 0 0 0-.898 3.316 6.57 6.57 0 0 0 2.914 5.452 6.479 6.479 0 0 1-2.964-.808v.072c0 3.188 2.274 5.836 5.256 6.446a6.548 6.548 0 0 1-1.72.216 5.8 5.8 0 0 1-1.242-.112c.85 2.598 3.262 4.508 6.13 4.57a13.182 13.182 0 0 1-8.134 2.798c-.538 0-1.054-.024-1.57-.09A18.469 18.469 0 0 0 10.064 29c12.072 0 18.672-10 18.672-18.668 0-.29-.01-.57-.024-.848A13.087 13.087 0 0 0 32 6.078z"/>
        </g>
    </symbol>
</svg>